{"accessors" : [{"bufferView" : 0, "byteOffset" : 0, "componentType" : 5123, "count" : 237048, "type" : "SCALAR", "max" : [39579], "min" : [0]}, {"bufferView" : 1, "byteOffset" : 0, "componentType" : 5126, "count" : 39580, "type" : "VEC3", "max" : [0.17291462421417236, 0.48852813243865967, 0.3480217456817627], "min" : [-0.12409120798110962, -0.28128206729888916, -0.3316139578819275], "name" : "POSITION"}], "asset" : {"generator" : "Aspose.3D 24.4.1", "version" : "2.0"}, "buffers" : [{"uri" : "data:application/octet-stream;base64,", "byteLength" : 949064}], "bufferViews" : [{"buffer" : 0, "byteOffset" : 0, "byteLength" : 474096, "target" : 34963}, {"buffer" : 0, "byteOffset" : 474100, "byteLength" : 474960, "byteStride" : 12, "target" : 34962}], "meshes" : [{"primitives" : [{"attributes" : {"POSITION" : 1}, "indices" : 0, "mode" : 4}], "name" : ""}], "nodes" : [{"mesh" : 0, "name" : ""}], "scene" : 0, "scenes" : [{"nodes" : [0]}]}